Coordinates
version=1
nRows=10
nColumns=22
inDegrees=yes

Units are S.I. units (second, meters, Newtons, ...)
If the header above contains a line with 'inDegrees', this indicates whether rotational values are in degrees (yes) or radians (no).

endheader
time	pelvis_tilt	pelvis_list	pelvis_rotation	pelvis_tx	pelvis_ty	pelvis_tz	hip_flexion_r	hip_adduction_r	hip_rotation_r	knee_angle_r	ankle_angle_r	subtalar_angle_r	hip_flexion_l	hip_adduction_l	hip_rotation_l	knee_angle_l	ankle_angle_l	subtalar_angle_l	lumbar_extension	lumbar_bending	lumbar_rotation
      4.57000000	      3.51429738	     -3.12232997	      4.39935416	     -1.06684288	      0.91579165	      0.00828921	    -12.89114700	      7.03915759	     -8.71583727	    -16.83614063	     22.36052301	     -3.85484385	     29.74922529	     -5.71682485	     -5.81501310	    -32.63984570	     16.25690394	    -16.76728953	    -18.29013988	      2.77793379	     -2.14188908
      4.58000000	      3.65195030	     -3.09668537	      4.46463299	     -1.07337560	      0.91756201	      0.00902744	    -12.71771855	      7.10055861	     -8.73826127	    -16.55974802	     22.19636042	     -4.01545449	     29.56653541	     -5.68451136	     -5.00825185	    -34.39535312	     16.50223320	    -17.38437411	    -18.33582835	      2.78221423	     -2.13512908
      4.59000000	      3.77013810	     -3.06705843	      4.46951925	     -1.07972768	      0.91932135	      0.00971893	    -12.51985507	      7.12858250	     -8.70557787	    -16.31539619	     21.98469116	     -4.13872921	     29.35557932	     -5.61664825	     -4.14087442	    -36.16285918	     16.76416483	    -17.85035593	    -18.36141200	      2.77357529	     -2.07246747
      4.60000000	      3.86833122	     -3.03831046	      4.41616958	     -1.08591563	      0.92103662	      0.01035337	    -12.29395780	      7.12757631	     -8.64055538	    -16.10772772	     21.78272472	     -4.25582362	     29.12358086	     -5.52953395	     -3.28016802	    -37.94236179	     17.03594499	    -18.24490422	    -18.36797609	      2.76479545	     -1.97025151
      4.61000000	      3.99285779	     -2.99262822	      4.31806298	     -1.09192148	      0.92277022	      0.01094429	    -12.11354986	      7.09119763	     -8.55706679	    -15.89514586	     21.59317472	     -4.31206506	     28.80085788	     -5.41665009	     -2.46291636	    -39.69286222	     17.31087762	    -18.34014162	    -18.41065335	      2.73346630	     -1.83788161
      4.62000000	      4.05257624	     -2.95923512	      4.19186492	     -1.09780496	      0.92433656	      0.01147235	    -11.85223846	      7.04803855	     -8.46506948	    -15.72116291	     21.34547937	     -4.39865161	     28.51239590	     -5.28823569	     -1.66577593	    -41.43039875	     17.58743032	    -18.44752220	    -18.38132128	      2.71147998	     -1.69299852
      4.63000000	      4.08840119	     -2.91584222	      4.04170547	     -1.10355045	      0.92578618	      0.01194793	    -11.56409307	      6.98079124	     -8.37279490	    -15.57459719	     21.13344199	     -4.49577409	     28.20119203	     -5.14126769	     -0.94259232	    -43.13169026	     17.85276340	    -18.49086255	    -18.32922332	      2.67501807	     -1.55025287
      4.64000000	      4.11144557	     -2.87023875	      3.88869718	     -1.10916409	      0.92711011	      0.01234477	    -11.26727732	      6.90515351	     -8.29371995	    -15.44140468	     20.93994724	     -4.59919756	     27.86234487	     -4.98447628	     -0.29293868	    -44.79275905	     18.11361243	    -18.45446230	    -18.26582701	      2.64176365	     -1.43433289
      4.65000000	      4.11555763	     -2.82868882	      3.74575331	     -1.11465795	      0.92828397	      0.01267977	    -10.95136376	      6.83337517	     -8.22944683	    -15.32655367	     20.76429857	     -4.72180504	     27.50763307	     -4.82633294	      0.29403648	    -46.40636424	     18.35375149	    -18.34351647	    -18.18381762	      2.61076078	     -1.35580721
      4.66000000	      4.08164212	     -2.80075379	      3.62426700	     -1.12005718	      0.92926558	      0.01292379	    -10.58621532	      6.77635807	     -8.16762005	    -15.24420830	     20.60556452	     -4.92647968	     27.16955951	     -4.67618126	      0.82567993	    -47.97387258	     18.52396464	    -18.10276391	    -18.06040448	      2.60355796	     -1.33177618
